<?xml version="1.0" encoding="UTF-8"?>
<svg width="224px" height="315px" viewBox="0 0 224 315" version="1.1" xmlns="http://www.w3.org/2000/svg" xmlns:xlink="http://www.w3.org/1999/xlink">
    <title>Illus/Illu Contact@1x</title>
    <g id="Illus/Illu-Contact" stroke="none" stroke-width="1" fill="none" fill-rule="evenodd">
        <g id="Group">
            <path d="M108.912407,97.8835791 C118.58059,108.816773 104.364866,125.764501 82.6487194,150.986205 C60.931288,176.206631 54.4061642,175.094153 45.2712479,166.39741 C38.6150562,160.059734 47.1524573,163.730528 63.5256607,128.370075 C80.5323589,91.6340326 101.845022,89.8905969 108.912407,97.8835791" id="Fill-1" fill="#E1A696"></path>
            <path d="M29.4594805,116.692675 C50.3967389,139.013774 72.3731604,148.251236 70.9328261,157.252462 C69.4924918,166.254965 63.6004504,171.707545 56.8711257,171.988474 C36.4890365,172.837646 20.5366548,126.499657 14.4233221,120.772533 C11.8985312,118.408897 21.4451136,98.381201 22.5670991,101.287541 C23.8624941,104.643368 27.7926785,114.916436 29.4594805,116.692675" id="Fill-3" fill="#E1A696"></path>
            <path d="M7.4976004,97 C7.4976004,97 14.0150791,98.7047704 17.1249096,102.06156 C19.4179782,104.535728 22.8754758,102.931314 25.4701967,103.097288 C26.5732726,104.749307 33,123.721793 33,123.721793 L24.4182483,136 C21.3339815,132.613618 16.9970909,127.441409 16.9970909,127.441409 C16.9970909,127.441409 6.85339384,121.443191 1.65756112,116.840954 C-0.949941645,114.531473 -0.0577666793,111.972387 1.44921654,108.232185 C2.4040227,105.863519 4.71370774,98.2596002 7.4976004,97" id="Fill-5" fill="#E1A696"></path>
            <path d="M17.5,208.501 L17.499,208.501 C17.5,208.501 17.5,208.5 17.501,208.499 L17.5,208.501 Z" id="Fill-7" fill="#A0616B"></path>
            <path d="M18.1375672,104.70989 C17.0239627,106.869848 17.0213819,100.273807 16.5220019,97.9747026 C14.4289931,88.3365927 19.2963353,90.1071965 19.4395683,90.1608124 C22.0474418,93.0228843 25.4437421,104.083094 28,109.511073 L23.8449518,110 L18.1375672,104.70989 Z" id="Fill-9" fill="#E1A696"></path>
            <path d="M102.25937,9.09096696 C103.219038,5.82249114 104.742382,3.30730181 106.886156,2.56544799 C108.971887,1.84391893 111.248518,1.9696784 113.455497,2.10178935 C121.781649,2.60355692 132.995834,1.44250488 140.836992,4.70716981 C146.414417,7.03308478 148.702658,11.8386208 149.706182,18.3882754 C150.903187,26.1955247 151.272092,34.1590206 150.802577,42.0628125 C150.551051,46.3043363 149.806792,51.0285732 146.716248,53.5120051 C142.859518,56.6115313 137.186642,54.488864 133.921965,50.6322403 C132.651437,49.1320188 131.598897,47.3904408 130.895915,45.4811834 C130.091032,43.2988121 129.751795,40.9347882 129.032044,38.7155782 C127.667354,34.5210554 124.665812,30.7647853 120.758777,29.8133323 C115.728259,28.5925763 107.16477,35.364533 103.643407,30.9947091 C100.788911,27.451849 100.119465,16.3888269 102.25937,9.09096696" id="Fill-11" fill="#0D378C"></path>
            <polyline id="Fill-13" fill="#09204E" points="135.172373 315 104.813202 133.71701 172.036134 160.317699 174 315"></polyline>
            <polyline id="Fill-15" fill="#09204E" points="118.5 315 148 133 84.0010022 160.317699 80.7973734 315"></polyline>
            <path d="M27.499,64.5 L27.499,64.498 C27.5,64.5 27.501,64.501 27.501,64.502 L27.499,64.5 Z" id="Fill-17" fill="#A0616B"></path>
            <path d="M111.469293,104.58614 L99.4578669,133.993787 C99.4578669,133.993787 82.972633,134.59418 65,123.990678 C71.9906473,105.521516 90.200645,63.1062187 121,72.2834661 L111.469293,104.58614 Z" id="Fill-19" fill="#00A6EE"></path>
            <line x1="126.651693" y1="264.662109" x2="118.5" y2="226.5" id="Stroke-39" stroke="#0B6085" stroke-width="1.5" stroke-linecap="round"></line>
            <path d="M79,223.196312 C79,223.196312 95.9643793,226.958383 113.487125,227 C139.125992,227.058125 177.314692,223.377894 177.331302,223.159228 C178.904184,201.851483 173.864829,159.68739 174.253258,143.695392 C174.680019,126.053812 191.662287,140.715914 190.97998,128.48215 C189.07489,94.3319589 187.701333,98.5236884 182.323381,90.0698984 C173.539009,76.26072 155.258571,69.3900175 155.258571,69.3900175 L114.6703,69 C114.6703,69 101.333387,71.6099207 95.1581336,80.2708675 C84.5172245,95.1899975 84.3830632,114.137177 84.4035068,118.103848 C84.5274463,142.887225 80.2176737,189.346625 79,223.196312" id="Fill-21" fill="#00A6EE"></path>
            <path d="M141.109576,36 C140.433167,51.3291751 143.026904,62.6047658 152,69.7653735 C152,69.7653735 131.399723,92.1796872 119.821575,88.6160122 C108.753876,85.2083918 112.674027,69.3432584 112.674027,69.3432584 C112.674027,69.3432584 121.835712,63.0857212 121.830683,50.2201635 C121.824397,37.1537814 141.109576,36 141.109576,36" id="Fill-23" fill="#E1A696"></path>
            <path d="M100.24023,19 C99.288546,24.6927597 100.58595,57.8031791 114.92883,57.996572 C127.120852,58.1614102 136.123583,52.3998598 137,36.7220567 L136.365969,20.634105 L100.24023,19 Z" id="Fill-25" fill="#E1A696"></path>
            <path d="M104.543324,34 L104.543324,34 C103.719334,34 103.024288,33.3257086 103.000701,32.5007459 C102.975541,31.6742914 103.631274,31 104.455264,31 C105.279255,31 105.9743,31.6742914 105.99946,32.4992541 C106.021475,33.3257086 105.367315,34 104.543324,34" id="Fill-27" fill="#09204E"></path>
            <path d="M117.543284,34 L117.543284,33.9985089 C116.719315,34 116.024287,33.3260437 116.000701,32.5 C115.975541,31.6754473 116.631257,31.0014911 117.453654,31 L117.455227,31 C118.279196,31 118.974224,31.6754473 118.999383,32.5 C119.02297,33.3245527 118.367254,33.9985089 117.543284,34" id="Fill-29" fill="#09204E"></path>
            <polyline id="Stroke-31" stroke="#09204E" points="109.839173 30 106 40.1784694 111 42"></polyline>
            <path d="M152.788077,77.7661703 C167.693067,73.2246104 191.378521,88.8734551 209.817883,124.713986 C228.257246,160.553235 226.232076,162.059829 217.730234,166.821741 C209.229681,171.581091 203.2019,176.793956 176.363888,135.663693 C149.527167,94.5347113 141.892148,81.0868257 152.788077,77.7661703" id="Fill-33" fill="#E1A696"></path>
            <path d="M167.622946,171.59208 C181.849576,156.673911 197.447774,137.335073 207.527443,141.600675 C217.607113,145.866278 226.076512,155.695212 223.548853,161.974138 C221.021194,168.251793 181.818609,189.69674 174.507881,194.196213 C171.488625,196.054471 161.217994,194.235616 157.985842,193.292506 C145.595281,189.676404 165.89139,173.408393 167.622946,171.59208" id="Fill-35" fill="#E1A696"></path>
            <path d="M141,89.037542 L172.642634,140 C172.642634,140 189.033969,128.477941 207,114.748541 C196.869324,97.8514139 153.657308,57.3576878 150.041479,73.8869247 L141,89.037542 Z" id="Fill-37" fill="#00A6EE"></path>
            <path d="M149.844095,25.5648486 C149.144125,21.0550507 145.800831,14.8529404 142.275105,12.0393573 C136.442454,7.37346602 129.442755,4.01225525 122.03032,3.17845645 C116.879525,2.61391873 111.530771,3.38788174 106.813414,5.51335325 C106.479603,9.73697993 105.861145,13.8032125 106.028051,17.8473318 C114.386286,18.5458496 121.373047,19.012829 123.84429,18.6577166 C125.373614,32.7828666 131.750973,32.3132857 138.438856,34.4257494 C144.65966,36.3535026 151.088773,33.4345564 149.844095,25.5648486" id="Fill-41" fill="#0D378C"></path>
            <path d="M123,1.49830995 C111.68317,0.0443458488 99.8467669,-0.882174984 96.2299828,1.27843601 C92.6169913,3.43777606 90.1986383,7.49845378 90.0115414,11.7218128 C89.9420122,13.3155811 90.1796757,14.9512908 90.9141572,16.3645845 C92.3780635,19.1860883 95.6206539,20.7099545 98.7747526,20.9565184 C101.930115,21.2005403 105.060195,20.3744244 108.118217,19.5533922 C110.3697,18.9496921 112.671749,18.3231149 114.580642,16.9797232 C116.488272,15.6350606 117.952178,13.4058184 117.738534,11.0736295 C117.540059,8.90666377 120.777593,7.22392909 119.312423,5.62126411 C117.897819,4.07452083 119.610766,5.5195883 118.196162,3.97157407 L123,1.49830995 Z" id="Fill-43" fill="#0D378C"></path>
            <path d="M139.093414,42.7678807 C142.572366,41.8582251 144.679595,38.539761 143.800385,35.3534256 C142.91987,32.1683606 139.386048,30.3223696 135.907096,31.2320252 C132.426837,32.1416808 130.319608,35.4601449 131.200124,38.6464803 C132.08064,41.8328158 135.614461,43.6775363 139.093414,42.7678807" id="Fill-45" fill="#E1A696"></path>
            <path d="M120.89925,47 C121.688672,51.8709028 117.730387,53.5406899 112.831248,50.4034782 L110,48.5904989" id="Fill-47" fill="#FFFFFF"></path>
        </g>
    </g>
</svg>