<?xml version="1.0" encoding="UTF-8"?>
<svg width="40px" height="40px" viewBox="0 0 40 40" version="1.1" xmlns="http://www.w3.org/2000/svg" xmlns:xlink="http://www.w3.org/1999/xlink">
    <title>Icon/Contact/email@1x</title>
    <g id="Icon/Contact/email" stroke="none" stroke-width="1" fill="none" fill-rule="evenodd">
        <path d="M23.2514389,18.4608298 C22.8835387,20.4651443 21.1503473,22.089968 19.3801228,22.089968 C17.6098983,22.089968 16.4730254,20.4651443 16.8408541,18.4608298 C17.2086827,16.4565152 18.9418741,14.8316915 20.7120986,14.8316915 C22.4823231,14.8316915 23.6192675,16.4565152 23.2514389,18.4608298 Z" id="Stroke-13" stroke="#141E23" stroke-width="2.2" stroke-linecap="round" stroke-linejoin="round"></path>
        <path d="M23.8369021,14.7761207 L22.8895965,20.4329434 C22.8280648,21.2153123 23.4439629,21.8495751 24.2652158,21.8495751 C25.6638368,21.8495751 26.6974197,20.9083622 27.0725055,19.6014975 C27.2178233,19.0948191 27.3093319,18.5692097 27.3402223,18.0303965 C27.5523032,14.3351434 24.4864309,11.0921625 20.6231379,10.9305344 C16.2619448,10.7480665 12.3930051,14.0838722 12.0887513,18.2174778 C11.7823384,22.3817864 15.2741993,25.7015247 19.6577298,25.4236868 C20.1975645,25.389484 20.7260229,25.3023066 21.2381226,25.1672454" id="Stroke-15" stroke="#141E23" stroke-width="2.2" stroke-linecap="round" stroke-linejoin="round"></path>
        <polygon id="Stroke-12-Copy" stroke="#141E23" stroke-width="2.2" stroke-linejoin="round" points="1.14440061 32.9159666 1.14440061 13.811176 1.14440061 5.45869015 11.8819235 5.45869015 27.5386923 5.45869015 38.2762152 5.45869015 38.2762152 13.811176 38.2762152 32.9159666"></polygon>
        <polygon id="Path-10" stroke="#2A2F30" stroke-width="2.2" stroke-linejoin="round" points="15.7275996 33.4586901 12.0700168 38.4586901 28.4749477 38.4586901 24.5156102 33.4586901"></polygon>
        <line x1="1.14440061" y1="29.3684082" x2="38.2762152" y2="29.3684082" id="Path-11" stroke="#2A2F30" stroke-width="2.2"></line>
    </g>
</svg>