<svg xmlns="http://www.w3.org/2000/svg" viewBox="0 0 136.19 104.28"><defs><style>.cls-1{fill:#fff;}</style></defs><g id="Calque_2" data-name="Calque 2"><g id="OBJECTS"><path class="cls-1" d="M68.09,0A68.08,68.08,0,0,0,10.42,104.28,17.17,17.17,0,0,1,34,90.77a10.86,10.86,0,0,1,17.87-5.86,27.1,27.1,0,0,1,53.26,4.94,17.15,17.15,0,0,1,20.63,14.43A68.08,68.08,0,0,0,68.09,0ZM109,24.06,71.87,46.75,61.37,61.63a11.76,11.76,0,0,1-6.1,4.43l-6.1,1.88,4.17-10.1L29.33,69a51.93,51.93,0,0,1-10.88,4.48,1.7,1.7,0,0,1-1.85-2.64l4.63-6.42-7.44-3,7.61-4.83,8.74.5,16.68-9.71L12.68,43.18l10.06-5.24a11.65,11.65,0,0,1,4.65-1.3l43.15-2.76L90.13,22.79a23,23,0,0,1,15.46-2.61l2.75.51A1.84,1.84,0,0,1,109,24.06Z"/></g></g></svg>